<?xml version="1.0" encoding="iso-8859-1"?>
<!-- Uploaded to: SVG Repo, www.svgrepo.com, Generator: SVG Repo Mixer Tools -->
<svg fill="#000000" height="800px" width="800px" version="1.1" id="Layer_1" xmlns="http://www.w3.org/2000/svg" xmlns:xlink="http://www.w3.org/1999/xlink" 
	 viewBox="0 0 335.059 335.059" xml:space="preserve">
<g>
	<g>
		<g>
			<path d="M307.559,36.574H27.5C12.337,36.574,0,48.91,0,64.074v90c0,26.191,21.309,47.5,47.5,47.5c15.348,0,232.086,0,240.059,0
				c26.191,0,47.5-21.309,47.5-47.5v-90C335.059,48.91,322.722,36.574,307.559,36.574z M109.448,186.574H47.5
				c-15.34,0-28.232-10.683-31.627-25h93.575V186.574z M210.61,186.574h-86.162v-25h86.162V186.574z M287.559,186.574H225.61v-25
				h93.575C315.791,175.891,302.898,186.574,287.559,186.574z M320.059,146.574c-10.539,0-290.939,0-305.059,0v-82.5
				c0-6.893,5.607-12.5,12.5-12.5h280.059c6.893,0,12.5,5.607,12.5,12.5V146.574z"/>
			<path d="M297.559,56.574H37.5c-9.649,0-17.5,7.851-17.5,17.5v35c0,9.649,7.851,17.5,17.5,17.5h260.059
				c9.649,0,17.5-7.851,17.5-17.5v-35C315.059,64.425,307.208,56.574,297.559,56.574z M300.059,109.074c0,1.378-1.121,2.5-2.5,2.5
				H37.5c-1.379,0-2.5-1.122-2.5-2.5v-35c0-1.378,1.121-2.5,2.5-2.5h260.059c1.379,0,2.5,1.122,2.5,2.5V109.074z"/>
		</g>
	</g>
</g>
</svg>